# AST/ASF file generated using VICON BodyLanguage
# -----------------------------------------------
:version 1.10
:name VICON
:units
  mass 1.0
  length 0.45
  angle deg
:documentation
   .ast/.asf automatically generated from VICON data using
   VICON BodyBuilder and BodyLanguage model FoxedUp or BRILLIANT.MOD
:root
   order TX TY TZ RX RY RZ
   axis XYZ
   position 0 0 0  
   orientation 0 0 0 
:bonedata
  begin
     id 1 
     name lhipjoint
     direction 0.602128 -0.715006 0.355257 
     length 2.21237 
     axis 0 0 0  XYZ
  end
  begin
     id 2 
     name lfemur
     direction 0.34202 -0.939693 0  
     length 6.71649  
     axis 0 0 20  XYZ
    dof rx ry rz
    limits (-160.0 20.0)
           (-70.0 70.0)
           (-60.0 70.0)
  end
  begin
     id 3 
     name ltibia
     direction 0.34202 -0.939693 0   
     length 6.97123   
     axis 0 0 20   XYZ
    dof rx
    limits (-10.0 170.0)
  end
  begin
     id 4 
     name lfoot
     direction 0.0655697 -0.180151 0.981451   
     length 1.80924   
     axis -90 7.62852e-016 20   XYZ
    dof rx rz
    limits (-45.0 90.0)
           (-70.0 20.0)
  end
  begin
     id 5 
     name ltoes
     direction 1.53545e-011 -4.21827e-011 1   
     length 0.916331   
     axis -90 7.62852e-016 20   XYZ
    dof rx
    limits (-90.0 20.0)
  end
  begin
     id 6 
     name rhipjoint
     direction -0.625414 -0.698792 0.347201   
     length 2.2637  
     axis 0 0 0  XYZ 
  end
  begin
     id 7 
     name rfemur
     direction -0.34202 -0.939693 0   
     length 7.07595   
     axis 0 0 -20   XYZ
    dof rx ry rz
    limits (-160.0 20.0)
           (-70.0 70.0)
           (-70.0 60.0)
  end
  begin
     id 8 
     name rtibia
     direction -0.34202 -0.939693 0   
     length 7.22924   
     axis 0 0 -20   XYZ
    dof rx
    limits (-10.0 170.0)
 end
 begin
     id 9 
     name rfoot
     direction -0.0766747 -0.210662 0.974547   
     length 1.98482  
     axis -90 -7.62852e-016 -20   XYZ
    dof rx rz
    limits (-45.0 90.0)
           (-20.0 70.0)
  end
  begin
     id 10 
     name rtoes
     direction -1.53532e-011 -4.21867e-011 1   
     length 0.999842   
     axis -90 -7.62852e-016 -20   XYZ
    dof rx
    limits (-90.0 20.0)
  end
  begin
     id 11 
     name lowerback
     direction -0.0224668 0.997354 -0.0691422   
     length 2.09945   
     axis 0 0 0   XYZ
    dof rx ry rz
    limits (-20.0 45.0)
           (-30.0 30.0)
           (-30.0 30.0)
  end
  begin
     id 12 
     name upperback
     direction 0.0134698 0.998451 -0.0539888   
     length 2.09758   
     axis 0 0 0   XYZ
    dof rx ry rz
    limits (-20.0 45.0)
           (-30.0 30.0)
           (-30.0 30.0)
  end
  begin
     id 13 
     name thorax
     direction 0.0241905 0.99948 -0.0213333   
     length 2.10428   
     axis 0 0 0   XYZ
    dof rx ry rz
    limits (-20.0 45.0)
           (-30.0 30.0)
           (-30.0 30.0)
  end
  begin
     id 14 
     name lowerneck
     direction -0.00866847 0.995978 0.0891737   
     length 1.3959   
     axis 0 0 0   XYZ
    dof rx ry rz
    limits (-20.0 45.0)
           (-30.0 30.0)
           (-30.0 30.0)
  end
  begin
     id 15 
     name upperneck
     direction 0.0680679 0.992203 0.104404   
     length 1.39452   
     axis 0 0 0   XYZ
    dof rx ry rz
    limits (-20.0 45.0)
           (-30.0 30.0)
           (-30.0 30.0)
  end
  begin
     id 16
     name head
     direction 0.0242216 0.999358 0.0264054  
     length 1.40433  
     axis 0 0 0   XYZ
    dof rx ry rz
    limits (-20.0 45.0)
           (-30.0 30.0)
           (-30.0 30.0)
  end
  begin
     id 17 
     name lclavicle
     direction 0.929368 0.362991 -0.0671771  
     length 3.04887  
     axis 0 0 0   XYZ
    dof ry rz
    limits (-20.0 10.0)
           (0.0 20.0)
  end
  begin
     id 18 
     name lhumerus
     direction 1 -4.48967e-011 -7.13741e-028   
     length 4.77195   
     axis -180 -30 -90   XYZ
    dof rx ry rz
    limits (-60.0 90.0)
           (-90.0 90.0)
           (-90.0 90.0)
  end
  begin
     id 19
     name lradius
     direction 1 -4.48977e-011 3.60404e-027   
     length 2.98444   
     axis -180 -30 -90   XYZ
    dof rx
    limits (-10.0 170.0)
  end
  begin
     id 20
     name lwrist
     direction 1 -4.48997e-011 7.54877e-027   
     length 1.49222   
     axis -7.18178e-015 90 90   XYZ
    dof ry
    limits (-180.0 0.0)
 end
  begin
     id 21 
     name lhand
     direction 1 -4.489e-011 1.51105e-026   
     length 0.992285   
     axis -9.63605e-015 90 90   XYZ
    dof rx rz
    limits (-90.0 90.0)
           (-45.0 45.0)
  end
  begin
     id 22 
     name lfingers
     direction 1 -4.48998e-011 3.01948e-026   
     length 0.800006   
     axis -1.92718e-014 90 90   XYZ
    dof rx
    limits (0.0 90.0)
  end
  begin
     id 23
     name lthumb
     direction 0.707107 -6.34881e-011 0.707107   
     length 1.14865   
     axis -90 45 -3.53137e-014   XYZ
    dof rx rz
    limits (-45.0 45.0)
           (-45.0 45.0)
  end
  begin
     id 24 
     name rclavicle
     direction -0.945672 0.324529 0.0196374   
     length 3.4236  
     axis 0 0 0   XYZ 
    dof ry rz
    limits (-10.0 20.0)
           (-20.0 0.0)
  end
  begin
     id 25 
     name rhumerus
     direction -1 -4.4896e-011 1.02757e-029  
     length 4.62052   
     axis -180 30 90   XYZ
    dof rx ry rz
    limits (-90.0 60.0)
           (-90.0 90.0)
           (-90.0 90.0)
  end
  begin
     id 26 
     name rradius
     direction -1 -4.48982e-011 3.85962e-027   
     length 2.95332   
     axis -180 30 90   XYZ
    dof rx
    limits (-10.0 170.0)
  end
  begin
     id 27 
     name rwrist
     direction -1 -4.48961e-011 7.55118e-027   
     length 1.47666   
     axis -7.18178e-015 -90 -90   XYZ
    dof ry
    limits (-180.0 0.0)
  end
  begin
     id 28
     name rhand
     direction -1 -4.48984e-011 1.50994e-026   
     length 0.990956   
     axis -9.63605e-015 -90 -90   XYZ
    dof rx rz
    limits (-90.0 90.0)
           (-45.0 45.0)
  end
  begin
     id 29
     name rfingers
     direction -1 -4.4892e-011 3.02158e-026   
     length 0.798934   
     axis -1.92718e-014 -90 -90   XYZ
    dof rx
    limits (0.0 90.0)
  end
  begin
     id 30
     name rthumb
     direction -0.707107 -6.34916e-011 0.707107   
     length 1.14711   
     axis -90 -45 3.53137e-014   XYZ
    dof rx rz
    limits (-45.0 45.0)
           (-45.0 45.0)
  end
:hierarchy
  begin
    root lhipjoint rhipjoint lowerback
    lhipjoint lfemur
    lfemur ltibia
    ltibia lfoot
    lfoot ltoes
    rhipjoint rfemur
    rfemur rtibia
    rtibia rfoot
    rfoot rtoes
    lowerback upperback
    upperback thorax
    thorax lowerneck lclavicle rclavicle
    lowerneck upperneck
    upperneck head
    lclavicle lhumerus
    lhumerus lradius
    lradius lwrist
    lwrist lhand lthumb
    lhand lfingers
    rclavicle rhumerus
    rhumerus rradius
    rradius rwrist
    rwrist rhand rthumb
    rhand rfingers
  end

#!OML:ASF H:\ManfredObstacles\Project 1\Capture day 1\Session 1\Male.ASF
:FULLY-SPECIFIED
:DEGREES
48
root 0.0995028 16.1201 32.5978 -167.669 -5.21282 180.515
lowerback -12.3572 -1.1736 -2.56567
upperback -0.338119 -1.32318 0.631521
thorax 6.65653 -0.774009 1.8745
lowerneck 3.16946 -1.51654 -5.41948
upperneck -15.7376 -2.12056 8.77856
head -5.06125 -1.64575 3.78954
rclavicle -1.37286e-014 -7.7526e-015
rhumerus -39.7807 -27.2127 -71.6194
rradius 22.1101
rwrist 41.9745
rhand -2.20343 -6.92548
rfingers 7.12502
rthumb 23.4783 -35.5129
lclavicle -1.37286e-014 -7.7526e-015
lhumerus -31.6777 22.2317 78.9063
lradius 16.5358
lwrist -34.3603
lhand -8.77038 8.21544
lfingers 7.12502
lthumb 17.1675 37.477
rfemur -18.3949 -7.3735 23.422
rtibia 29.065
rfoot -31.1197 5.49411
rtoes 9.11854
lfemur -18.3006 -3.65093 -19.8903
ltibia 24.4037
lfoot -13.0977 -8.7024
ltoes -2.02789
49
root 0.0618594 16.1127 32.5794 -167.706 -5.42764 180.681
lowerback -12.3199 -1.1638 -2.37165
upperback -0.280384 -1.34054 0.719591
thorax 6.69558 -0.777289 1.855
lowerneck 3.20636 -1.51975 -5.38255
upperneck -15.7174 -2.11495 8.81135
head -5.0616 -1.64594 3.7934
rclavicle -2.08724e-015 3.18055e-015
rhumerus -39.9238 -27.2076 -71.4222
rradius 22.3788
rwrist 41.5589
rhand -2.17578 -7.16567
rfingers 7.12502
rthumb 23.5048 -35.7497
lclavicle -2.08724e-015 3.18055e-015
lhumerus -31.615 22.2799 78.9623
lradius 16.4499
lwrist -34.5576
lhand -8.74433 8.10635
lfingers 7.12502
lthumb 17.1925 37.3658
rfemur -18.3808 -6.85071 23.4473
rtibia 29.3815
rfoot -31.5051 4.70661
rtoes 8.86798
lfemur -18.2692 -3.7051 -19.8379
ltibia 24.5124
lfoot -13.3248 -8.83745
ltoes -2.95138
50
root 0.0234404 16.1064 32.5604 -167.743 -5.55218 180.715
lowerback -12.2517 -1.17043 -2.36687
upperback -0.203546 -1.35202 0.801472
thorax 6.74173 -0.783452 1.93738
lowerneck 3.13466 -1.5334 -5.40584
upperneck -15.5601 -2.12388 8.837
head -4.9994 -1.64261 3.79998
rclavicle 2.21893e-014 0
rhumerus -39.9771 -26.9778 -71.3077
rradius 22.6672
rwrist 40.9515
rhand -2.15913 -7.4129
rfingers 7.12502
rthumb 23.5208 -35.9948
lclavicle 2.21893e-014 0
lhumerus -31.528 22.0924 79.1666
lradius 16.4152
lwrist -34.4341
lhand -8.60813 8.27156
lfingers 7.12502
lthumb 17.3236 37.5195
rfemur -18.4937 -6.48359 23.3587
rtibia 29.906
rfoot -31.8122 3.90864
rtoes 8.03413
lfemur -18.1953 -3.51227 -19.9589
ltibia 24.5877
lfoot -13.3619 -9.22551
ltoes -2.92109
51
root -0.0127714 16.0962 32.5418 -167.793 -5.65113 180.604
lowerback -12.0748 -1.19834 -2.53743
upperback -0.162595 -1.36659 0.824831
thorax 6.69137 -0.794706 2.05832
lowerneck 3.15505 -1.53902 -5.40736
upperneck -15.4684 -2.11729 8.91055
head -4.97379 -1.6397 3.82082
rclavicle -5.72748e-015 6.95746e-016
rhumerus -40.0676 -26.9371 -71.0783
rradius 22.8338
rwrist 40.6088
rhand -2.15195 -7.48798
rfingers 7.12502
rthumb 23.5277 -36.069
lclavicle -5.72748e-015 6.95746e-016
lhumerus -31.5463 21.9456 79.2064
lradius 16.3641
lwrist -34.4778
lhand -8.53796 8.37688
lfingers 7.12502
lthumb 17.3912 37.6189
rfemur -18.7423 -6.09886 23.117
rtibia 30.7161
rfoot -31.9706 3.25535
rtoes 7.72498
lfemur -18.0757 -3.26161 -20.2292
ltibia 24.6375
lfoot -13.27 -9.84443
ltoes -1.78537
52
root -0.0506846 16.0834 32.5252 -167.801 -5.76649 180.479
lowerback -11.9163 -1.23197 -2.7011
upperback -0.137884 -1.38965 0.82812
thorax 6.63392 -0.809676 2.1525
lowerneck 3.2906 -1.55424 -5.25985
upperneck -15.5827 -2.13441 8.87154
head -5.03343 -1.6593 3.78994
rclavicle 8.65956e-015 -3.77691e-015
rhumerus -40.1981 -26.971 -70.8187
rradius 23.0111
rwrist 40.3077
rhand -2.16212 -7.37
rfingers 7.12502
rthumb 23.5179 -35.9523
lclavicle 8.65956e-015 -3.77691e-015
lhumerus -31.5654 21.8263 79.1687
lradius 16.2501
lwrist -34.7036
lhand -8.55488 8.382
lfingers 7.12502
lthumb 17.3749 37.6254
rfemur -19.2116 -5.6784 22.8406
rtibia 31.8886
rfoot -31.9648 2.76301
rtoes 7.73715
lfemur -17.9973 -3.0943 -20.5067
ltibia 24.6621
lfoot -13.3449 -10.3936
ltoes -1.79215
53
root -0.0916177 16.0708 32.5102 -167.792 -5.77293 180.455
lowerback -11.7765 -1.23247 -2.75295
upperback -0.11576 -1.3869 0.865819
thorax 6.58089 -0.809253 2.22413
lowerneck 3.42366 -1.57107 -5.15125
upperneck -15.5833 -2.15202 8.81087
head -5.0576 -1.66904 3.75536
rclavicle 2.03319e-014 2.18663e-015
rhumerus -40.3367 -26.8803 -70.6337
rradius 23.2539
rwrist 39.907
rhand -2.17121 -7.21255
rfingers 7.12502
rthumb 23.5092 -35.796
lclavicle 2.03319e-014 2.18663e-015
lhumerus -31.5885 21.6996 79.1841
lradius 16.1414
lwrist -34.9143
lhand -8.60518 8.43073
lfingers 7.12502
lthumb 17.3265 37.6784
rfemur -19.9215 -5.18786 22.638
rtibia 33.4809
rfoot -32.0575 2.36881
rtoes 7.97529
lfemur -17.9263 -2.76235 -20.7243
ltibia 24.7002
lfoot -13.3457 -10.889
ltoes -1.69494
54
root -0.134737 16.061 32.4965 -167.628 -5.51454 180.487
lowerback -11.7074 -1.1555 -2.70843
upperback -0.174171 -1.29698 0.890667
thorax 6.47386 -0.763231 2.24219
lowerneck 3.53504 -1.57618 -5.17062
upperneck -15.3846 -2.13892 8.88032
head -5.01497 -1.6557 3.77589
rclavicle -9.28076e-015 -9.93923e-017
rhumerus -40.5355 -26.9145 -70.3657
rradius 23.4245
rwrist 39.8103
rhand -2.1636 -7.17048
rfingers 7.12502
rthumb 23.5165 -35.753
lclavicle -9.28076e-015 -9.93923e-017
lhumerus -31.6897 21.6216 79.1296
lradius 16.0391
lwrist -35.1622
lhand -8.70646 8.43976
lfingers 7.12502
lthumb 17.229 37.696
rfemur -21.0965 -4.6027 22.4694
rtibia 35.5389
rfoot -32.2915 1.91564
rtoes 7.22194
lfemur -18.0271 -2.19929 -20.9475
ltibia 24.7942
lfoot -13.2157 -11.3145
ltoes -0.355311
55
root -0.173301 16.0503 32.4843 -167.37 -5.21077 180.466
lowerback -11.6348 -1.10624 -2.76475
upperback -0.27614 -1.23242 0.909524
thorax 6.32238 -0.732412 2.30651
lowerneck 3.54072 -1.54518 -5.15477
upperneck -15.1857 -2.08395 8.90049
head -4.9587 -1.62153 3.7715
rclavicle 3.17434e-015 6.08778e-015
rhumerus -40.7194 -27.119 -69.9716
rradius 23.4367
rwrist 40.0216
rhand -2.15415 -7.24592
rfingers 7.12502
rthumb 23.5255 -35.8272
lclavicle 3.17434e-015 6.08778e-015
lhumerus -31.8086 21.6025 79.0042
lradius 15.9438
lwrist -35.3665
lhand -8.66783 8.50247
lfingers 7.12502
lthumb 17.2662 37.7554
rfemur -22.6717 -4.05425 22.2901
rtibia 38.0765
rfoot -32.4769 1.24517
rtoes 5.82937
lfemur -18.2528 -1.96249 -21.1654
ltibia 24.9009
lfoot -13.2422 -11.497
ltoes 0.786965
56
root -0.204805 16.0353 32.4723 -167.207 -5.00612 180.404
lowerback -11.4337 -1.11364 -2.94788
upperback -0.324907 -1.22662 0.943118
thorax 6.16211 -0.732952 2.44926
lowerneck 3.40661 -1.50748 -5.20642
upperneck -14.9344 -2.02097 8.97552
head -4.86134 -1.58177 3.79194
rclavicle -2.28323e-014 -8.02593e-015
rhumerus -40.818 -27.4096 -69.5605
rradius 23.3678
rwrist 40.3835
rhand -2.19889 -7.28763
rfingers 7.12502
rthumb 23.4826 -35.8745
lclavicle -2.28323e-014 -8.02593e-015
lhumerus -31.8821 21.9661 78.7306
lradius 15.7844
lwrist -35.8971
lhand -8.55906 8.61757
lfingers 7.12502
lthumb 17.3708 37.8613
rfemur -24.4596 -3.79133 22.1494
rtibia 41.0085
rfoot -32.5017 0.418427
rtoes 4.33958
lfemur -18.3887 -1.73278 -21.3718
ltibia 24.939
lfoot -13.1768 -11.8532
ltoes 1.7787
57
root -0.235926 16.0221 32.4569 -167.108 -4.70886 180.171
lowerback -11.1956 -1.11834 -3.23748
upperback -0.314825 -1.19405 0.8594
thorax 6.04116 -0.721063 2.53312
lowerneck 3.27715 -1.51578 -5.18892
upperneck -14.6408 -2.01538 9.05312
head -4.74859 -1.5726 3.80317
rclavicle -1.57164e-015 9.93923e-017
rhumerus -40.8569 -27.5602 -69.4041
rradius 23.3878
rwrist 40.5558
rhand -2.24844 -7.29283
rfingers 7.12502
rthumb 23.4351 -35.8857
lclavicle -1.57164e-015 9.93923e-017
lhumerus -31.9716 22.6636 78.182
lradius 15.6005
lwrist -36.6478
lhand -8.5872 8.64878
lfingers 7.12502
lthumb 17.3438 37.8949
rfemur -26.3771 -3.79035 21.8156
rtibia 44.1211
rfoot -32.2094 -0.11059
rtoes 3.4381
lfemur -18.3656 -1.13121 -21.8286
ltibia 24.8477
lfoot -12.9647 -12.4182
ltoes 3.01621
58
root -0.265208 16.0146 32.4351 -167.101 -4.45496 179.789
lowerback -10.9098 -1.22357 -3.66248
upperback -0.253198 -1.27653 0.741215
thorax 5.95859 -0.769105 2.63874
lowerneck 3.32132 -1.49322 -5.07968
upperneck -14.5686 -1.98107 9.00706
head -4.73875 -1.55669 3.76769
rclavicle 2.66061e-014 4.72114e-015
rhumerus -40.7954 -27.3565 -69.5332
rradius 23.4873
rwrist 40.2869
rhand -2.25743 -7.34967
rfingers 7.12502
rthumb 23.4265 -35.9437
lclavicle 2.66061e-014 4.72114e-015
lhumerus -32.1345 23.3339 77.5633
lradius 15.4744
lwrist -37.0679
lhand -8.5982 8.56093
lfingers 7.12502
lthumb 17.3332 37.808
rfemur -28.1901 -3.95724 21.3088
rtibia 47.1204
rfoot -26.4713 -2.02808
rtoes -11.8796
lfemur -18.0927 -0.653036 -22.438
ltibia 24.5723
lfoot -12.7655 -12.8176
ltoes 4.10651
59
root -0.288728 16.0143 32.4074 -167.165 -4.44212 179.525
lowerback -10.5779 -1.4127 -4.05169
upperback -0.147707 -1.48342 0.729
thorax 5.90943 -0.879281 2.81687
lowerneck 3.3908 -1.42881 -5.11495
upperneck -14.6026 -1.89651 9.02353
head -4.76664 -1.51733 3.77727
rclavicle -3.75827e-015 -7.60351e-015
rhumerus -40.7213 -27.299 -69.532
rradius 23.5304
rwrist 40.0977
rhand -2.23127 -7.28083
rfingers 7.12502
rthumb 23.4516 -35.8716
lclavicle -3.75827e-015 -7.60351e-015
lhumerus -32.201 23.7043 77.2089
lradius 15.367
lwrist -37.2021
lhand -8.57739 8.50335
lfingers 7.12502
lthumb 17.3532 37.7487
rfemur -29.8992 -4.2769 21.0134
rtibia 49.693
rfoot -26.721 -1.73744
rtoes -7.84904
lfemur -17.6514 -0.434541 -22.8301
ltibia 24.1024
lfoot -12.4708 -13.0506
ltoes 4.54254
60
root -0.309348 16.0228 32.3714 -167.286 -4.54338 179.409
lowerback -10.229 -1.56838 -4.29548
upperback -0.0131107 -1.66659 0.741308
thorax 5.87828 -0.974665 2.94368
lowerneck 3.39031 -1.36842 -5.11708
upperneck -14.5546 -1.8139 9.02615
head -4.758 -1.47563 3.77368
rclavicle 2.67738e-014 6.26172e-015
rhumerus -40.7175 -27.4323 -69.4478
rradius 23.5641
rwrist 39.9953
rhand -2.13509 -7.24333
rfingers 7.12502
rthumb 23.5438 -35.8223
lclavicle 2.67738e-014 6.26172e-015
lhumerus -32.0892 23.8733 77.0144
lradius 15.2141
lwrist -37.414
lhand -8.57536 8.65063
lfingers 7.12502
lthumb 17.3552 37.8958
rfemur -31.4925 -4.68761 20.9506
rtibia 51.5916
rfoot -26.6084 -1.95533
rtoes -7.93366
lfemur -17.0748 -0.244513 -23.0214
ltibia 23.5152
lfoot -12.2241 -13.2602
ltoes 3.72551
61
root -0.326671 16.0353 32.3285 -167.46 -4.66342 179.427
lowerback -9.79318 -1.69761 -4.3784
upperback 0.090637 -1.84177 0.774623
thorax 5.76136 -1.06021 3.0064
lowerneck 3.32882 -1.34132 -5.18189
upperneck -14.3381 -1.76771 9.10616
head -4.68279 -1.44525 3.8012
rclavicle 7.0817e-016 -1.24737e-014
rhumerus -40.8451 -27.3932 -69.4287
rradius 23.6484
rwrist 39.8448
rhand -2.01351 -7.46695
rfingers 7.12502
rthumb 23.6604 -36.0309
lclavicle 7.0817e-016 -1.24737e-014
lhumerus -32.0429 24.5997 76.4965
lradius 14.9056
lwrist -38.3976
lhand -8.54023 8.90275
lfingers 7.12502
lthumb 17.389 38.1449
rfemur -32.8685 -5.01224 21.0324
rtibia 52.695
rfoot -26.472 -2.10549
rtoes -8.68291
lfemur -16.3941 -0.025075 -23.0541
ltibia 22.8689
lfoot -12.044 -13.5051
ltoes 2.88625
62
root -0.341394 16.0466 32.2809 -167.551 -4.83408 179.627
lowerback -9.39995 -1.8089 -4.25251
upperback 0.105266 -2.02302 0.863086
thorax 5.5696 -1.14226 3.0102
lowerneck 3.34042 -1.34386 -5.36758
upperneck -14.0435 -1.75749 9.2591
head -4.59123 -1.42609 3.87246
rclavicle -2.21272e-014 -9.93923e-017
rhumerus -41.22 -27.298 -69.284
rradius 23.7004
rwrist 39.9095
rhand -2.0503 -7.54239
rfingers 7.12502
rthumb 23.6251 -36.1109
lclavicle -2.21272e-014 -9.93923e-017
lhumerus -32.1048 25.722 75.7498
lradius 14.4663
lwrist -39.9244
lhand -8.5259 9.09517
lfingers 7.12502
lthumb 17.4028 38.3361
rfemur -34.1648 -5.18949 21.3009
rtibia 53.011
rfoot -27.3399 -1.70276
rtoes -2.90287
lfemur -15.7817 0.0042867 -22.8522
ltibia 22.1626
lfoot -11.7156 -13.602
ltoes 3.55744
